<?xml version="1.0" encoding="utf-8"?>
<!-- Generator: Adobe Illustrator 16.0.4, SVG Export Plug-In . SVG Version: 6.00 Build 0)  -->
<!DOCTYPE svg PUBLIC "-//W3C//DTD SVG 1.1//EN" "http://www.w3.org/Graphics/SVG/1.1/DTD/svg11.dtd">
<svg version="1.1" id="Layer_1" xmlns="http://www.w3.org/2000/svg" xmlns:xlink="http://www.w3.org/1999/xlink" x="0px" y="0px"
	 width="50px" height="50px" viewBox="0 0 50 50" enable-background="new 0 0 50 50" xml:space="preserve">
<path d="M37.961,31.684l-1.592,8.557c-0.106,0.574-0.607,0.977-1.173,0.977c-0.072,0-0.146-0.01-0.219-0.021
	c-0.648-0.119-1.076-0.744-0.956-1.393l1.539-8.268l-1.995-6.528l-11.247-8.923c-0.402-0.319-0.556-0.857-0.381-1.34
	c0.174-0.483,0.664-0.793,1.152-0.789l7.556,0.188l3.212-4.104c0.407-0.521,1.158-0.608,1.675-0.203
	c0.521,0.404,0.611,1.154,0.204,1.676l-3.581,4.574c-0.231,0.296-0.624,0.439-0.969,0.457l-4.59-0.114l8.744,6.938
	c0.189,0.148,0.329,0.354,0.399,0.584l2.189,7.162C37.985,31.299,37.996,31.494,37.961,31.684z M18.384,15.749
	c1.923,0,3.483-1.562,3.483-3.481c0-1.926-1.56-3.483-3.483-3.483c-1.921,0-3.481,1.559-3.481,3.483
	C14.903,14.188,16.462,15.749,18.384,15.749z M22.46,19.825c-5.763,0-10.442,4.676-10.442,10.445c0,5.77,4.679,10.445,10.442,10.445
	c5.771,0,10.45-4.676,10.45-10.445C32.91,24.5,28.231,19.825,22.46,19.825z"/>
</svg>
